{
  "asset": {
    "version": "2.0",
    "generator": "THREE.GLTFExporter"
  },
  "scenes": [
    {
      "nodes": [
        0
      ]
    }
  ],
  "scene": 0,
  "nodes": [
    {
      "children": [
        5
      ],
      "matrix": [
        0.01,
        0,
        0,
        0,
        0,
        0.01,
        0,
        0,
        0,
        0,
        0.01,
        0,
        0,
        0,
        0,
        1
      ]
    },
    {
      "matrix": [
        1.2172712041026288,
        0,
        0,
        0,
        0,
        1.2172712041026288,
        0,
        0,
        0,
        0,
        1.2172712041026288,
        0,
        11.353803309385022,
        -122.84481817668518,
        -24.27396863660383,
        1
      ],
      "name": "Body",
      "mesh": 0
    },
    {
      "matrix": [
        9.989699845535236,
        0.004829075309126242,
        1.2239767851897692e-15,
        0,
        -0.0035411370545062166,
        7.325397518561469,
        8.966687981429122e-16,
        0,
        -6.12323399573676e-16,
        -6.123233995736764e-16,
        4.999999999999997,
        0,
        -76.07669476617411,
        -303.02976925690825,
        3376.6460394188775,
        1
      ],
      "name": "Body",
      "children": [
        1
      ]
    },
    {
      "matrix": [
        1,
        0,
        0,
        0,
        0,
        1,
        -6.123233995736766e-17,
        0,
        0,
        6.123233995736766e-17,
        1,
        0,
        0,
        6.123233995736766e-14,
        1000,
        1
      ],
      "camera": 0
    },
    {
      "matrix": [
        1,
        0,
        0,
        0,
        0,
        1,
        0,
        0,
        0,
        0,
        1,
        0,
        0,
        1,
        0,
        1
      ],
      "name": "Default Ambient Light"
    },
    {
      "name": "Scene 1",
      "children": [
        2,
        3,
        4
      ]
    }
  ],
  "bufferViews": [
    {
      "buffer": 0,
      "byteOffset": 0,
      "byteLength": 174648,
      "target": 34962,
      "byteStride": 12
    },
    {
      "buffer": 0,
      "byteOffset": 174648,
      "byteLength": 174648,
      "target": 34962,
      "byteStride": 12
    },
    {
      "buffer": 0,
      "byteOffset": 349296,
      "byteLength": 116432,
      "target": 34962,
      "byteStride": 8
    },
    {
      "buffer": 0,
      "byteOffset": 465728,
      "byteLength": 158544,
      "target": 34963
    }
  ],
  "buffers": [
    {
      "byteLength": 624272,
      "uri": "data:application/octet-stream;base64,"
    }
  ],
  "accessors": [
    {
      "bufferView": 0,
      "componentType": 5126,
      "count": 14554,
      "max": [
        33.89760208129883,
        183.5955352783203,
        69.46052551269531
      ],
      "min": [
        -33.47623825073242,
        83.59553527832031,
        -7.4732818603515625
      ],
      "type": "VEC3"
    },
    {
      "bufferView": 1,
      "componentType": 5126,
      "count": 14554,
      "max": [
        0.999824047088623,
        0.9998666644096375,
        0.9999401569366455
      ],
      "min": [
        -0.9999414086341858,
        -0.9997342228889465,
        -0.9999939799308777
      ],
      "type": "VEC3"
    },
    {
      "bufferView": 2,
      "componentType": 5126,
      "count": 14554,
      "max": [
        3.977299928665161,
        0.9905319213867188
      ],
      "min": [
        0.010448000393807888,
        0.003965973854064941
      ],
      "type": "VEC2"
    },
    {
      "bufferView": 3,
      "componentType": 5123,
      "count": 79272,
      "max": [
        14553
      ],
      "min": [
        0
      ],
      "type": "SCALAR"
    }
  ],
  "meshes": [
    {
      "primitives": [
        {
          "mode": 4,
          "attributes": {
            "POSITION": 0,
            "NORMAL": 1,
            "TEXCOORD_0": 2
          },
          "extras": {
            "parameters": {
              "width": 67.37384048781637,
              "height": 99.99999999999999,
              "depth": 76.9338101271295,
              "subdivisions": 0
            },
            "type": "NonParametricGeometry"
          },
          "indices": 3
        }
      ]
    }
  ],
  "cameras": [
    {
      "type": "orthographic",
      "orthographic": {
        "xmag": 14.212744751782733,
        "ymag": 7.180397088140236,
        "zfar": 100000,
        "znear": 0
      }
    }
  ]
}